<?xml version="1.0" standalone="no"?>
<!DOCTYPE svg PUBLIC "-//W3C//DTD SVG 20010904//EN"
 "http://www.w3.org/TR/2001/REC-SVG-20010904/DTD/svg10.dtd">
<svg version="1.0" xmlns="http://www.w3.org/2000/svg"
 width="233.000000pt" height="301.000000pt" viewBox="0 0 233.000000 301.000000"
 preserveAspectRatio="xMidYMid meet">

<g transform="translate(0.000000,301.000000) scale(0.100000,-0.100000)"
fill="#000000" stroke="none">
<path d="M524 2836 c-123 -166 -131 -175 -169 -182 -108 -18 -207 -102 -267
-225 -65 -135 -63 -94 -63 -1084 0 -845 1 -904 18 -960 43 -136 124 -243 226
-292 l56 -28 835 0 835 0 55 26 c100 47 185 157 227 294 17 56 18 115 18 960
0 989 2 948 -62 1084 -42 88 -119 171 -190 204 -47 22 -56 22 -573 25 l-525 3
-134 175 c-73 96 -139 174 -146 174 -7 0 -71 -78 -141 -174z m271 -61 l127
-164 531 -3 532 -3 49 -25 c60 -30 117 -95 156 -176 60 -124 60 -123 60 -1053
0 -570 -4 -867 -11 -906 -23 -128 -110 -258 -204 -308 l-40 -22 -835 0 -835 0
-46 27 c-61 36 -125 108 -155 173 -55 119 -55 123 -51 1069 2 779 5 877 20
926 52 169 160 282 286 297 27 3 52 11 55 18 5 13 228 315 232 315 2 0 60 -74
129 -165z"/>
</g>
</svg>
